PathFileType	4	(X/Y/Z)	/Users/itak/Documents/Research/Walk-IL/dataset/trc/00564_00009.trc
DataRate	CameraRate	NumFrames	NumMarkers	Units	OrigDataRate	OrigDataStartFrame	OrigNumFrames
100.000000	100.000000	4	53	mm	100.000000	125	503
Frame#	Time	RPSI			LPSI			L3			STRN			T10			C7			CLAV			RBAK			LBAK			LSHO			LUPA			LAEL			LAOL			LWTS			LWPS			LFRA			LHPS			LHTS			RSHO			RUPA			RAEL			RAOL			RWTS			RWPS			RFRA			RIFD			RHTS			RHPS			RBHD			LFHD			RFHD			LBHD			LHIP			RHIP			RASI			LASI			LKNE			LTHI			LANK			LTIP			LTOE			LMT1			LMT5			LHEE			RKNE			RTHI			RANK			RTIP			RTOE			RMT1			RMT5			RHEE			LIFD			
		X1	Y1	Z1	X2	Y2	Z2	X3	Y3	Z3	X4	Y4	Z4	X5	Y5	Z5	X6	Y6	Z6	X7	Y7	Z7	X8	Y8	Z8	X9	Y9	Z9	X10	Y10	Z10	X11	Y11	Z11	X12	Y12	Z12	X13	Y13	Z13	X14	Y14	Z14	X15	Y15	Z15	X16	Y16	Z16	X17	Y17	Z17	X18	Y18	Z18	X19	Y19	Z19	X20	Y20	Z20	X21	Y21	Z21	X22	Y22	Z22	X23	Y23	Z23	X24	Y24	Z24	X25	Y25	Z25	X26	Y26	Z26	X27	Y27	Z27	X28	Y28	Z28	X29	Y29	Z29	X30	Y30	Z30	X31	Y31	Z31	X32	Y32	Z32	X33	Y33	Z33	X34	Y34	Z34	X35	Y35	Z35	X36	Y36	Z36	X37	Y37	Z37	X38	Y38	Z38	X39	Y39	Z39	X40	Y40	Z40	X41	Y41	Z41	X42	Y42	Z42	X43	Y43	Z43	X44	Y44	Z44	X45	Y45	Z45	X46	Y46	Z46	X47	Y47	Z47	X48	Y48	Z48	X49	Y49	Z49	X50	Y50	Z50	X51	Y51	Z51	X52	Y52	Z52	X53	Y53	Z53	

126	1.25	-949.4072265625	979.0402221679688	-289.2422180175781	-933.8965454101562	985.1326293945312	-422.1697998046875	-929.4237670898438	1084.209228515625	-362.0097045898438	-674.57958984375	1240.895141601562	-343.5491943359375	-922.992919921875	1209.931030273438	-365.1652526855469	-838.3079833984375	1475.548950195312	-343.4916687011719	-677.73876953125	1352.99267578125	-341.6290283203125	-933.287353515625	1360.883178710938	-265.7863464355469	-871.5044555664062	1429.854125976562	-439.7649536132812	-763.9237060546875	1440.816162109375	-513.7445678710938	-782.20458984375	1316.915893554688	-595.8427124023438	-784.3939208984375	1094.68505859375	-619.3838500976562	-879.239501953125	1096.8818359375	-584.788330078125	-725.8509521484375	847.8529052734375	-552.477783203125	-759.664794921875	826.1846313476562	-630.0747680664062	-769.2836303710938	1006.805969238281	-621.3963012695312	-757.8446044921875	766.2827758789062	-620.294921875	-714.0332641601562	768.343994140625	-568.3650512695312	-798.2374267578125	1428.87841796875	-184.1394653320312	-829.087890625	1365.9736328125	-119.115364074707	-871.0079956054688	1079.39208984375	-75.72397613525391	-924.6370239257812	1068.702514648438	-107.88232421875	-761.2470703125	845.3561401367188	-107.9165420532227	-813.065673828125	829.1133422851562	-44.63535308837891	-867.8145141601562	1023.077880859375	-67.97724914550781	-779.8999633789062	676.3907470703125	-115.1328277587891	-744.1340942382812	749.9180297851562	-90.42465972900391	-804.9054565429688	753.2617797851562	-46.39734649658203	-742.7303466796875	1644.656616210938	-268.59765625	-565.601318359375	1637.715209960938	-376.6211547851562	-606.0628662109375	1636.233032226562	-238.3847961425781	-690.1188354492188	1642.82568359375	-425.5946655273438	-807.998046875	898.4547119140625	-545.9450073242188	-828.5100708007812	911.8926391601562	-160.5882873535156	-741.5645141601562	939.9517211914062	-217.8980865478516	-729.0552978515625	917.4415893554688	-492.6962585449219	-885.8334350585938	465.1052551269531	-470.51513671875	-842.30712890625	623.320068359375	-509.7210388183594	-1087.202514648438	38.01593017578125	-453.5648193359375	-1013.830505371094	242.7646789550781	-468.85888671875	-883.0755615234375	35.50468826293945	-375.7482604980469	-960.0244750976562	37.03596878051758	-348.1922607421875	-964.0525512695312	34.54170227050781	-454.59716796875	-1162.48828125	42.49118041992188	-406.2293090820312	-623.3281860351562	514.3466186523438	-196.4271545410156	-745.6271362304688	777.3217163085938	-153.1667175292969	-547.0978393554688	35.87082290649414	-241.7685852050781	-574.4721069335938	378.3235168457031	-210.1243133544922	-344.7383117675781	124.4324264526367	-227.1618194580078	-390.1326293945312	105.1880493164062	-283.1170349121094	-432.9339599609375	78.42455291748047	-192.0664978027344	-581.1478881835938	20.47736167907715	-309.3798217773438	-740.4284057617188	681.0526733398438	-556.718994140625	
127	1.26	-942.2192993164062	977.6719970703125	-287.8617248535156	-926.9161376953125	983.9269409179688	-420.8026428222656	-922.5403442382812	1082.7734375	-360.6311950683594	-667.6514282226562	1239.609375	-342.0890197753906	-916.0191040039062	1208.494995117188	-363.7842712402344	-831.5922241210938	1474.183471679688	-341.8096923828125	-670.973876953125	1351.68603515625	-339.9209899902344	-926.4727172851562	1359.240112304688	-264.3472595214844	-864.6849975585938	1428.599853515625	-438.1453247070312	-757.0423583984375	1439.741333007812	-512.0443725585938	-775.1878051757812	1315.8935546875	-594.31005859375	-777.3995971679688	1093.679443359375	-617.973388671875	-872.3048095703125	1095.90185546875	-583.5406494140625	-718.9554443359375	846.931884765625	-551.2840576171875	-752.8645629882812	825.1521606445312	-628.868896484375	-762.3348388671875	1005.78125	-620.0437622070312	-751.1019287109375	765.2719116210938	-619.1666259765625	-707.2301635742188	767.3560791015625	-567.2283935546875	-791.6522827148438	1427.39013671875	-182.4780578613281	-822.6758422851562	1364.477416992188	-117.5835800170898	-865.4810180664062	1078.03955078125	-74.38669586181641	-919.1668701171875	1067.553100585938	-106.608772277832	-756.1216430664062	843.8862915039062	-106.825065612793	-808.0508422851562	827.6254272460938	-43.59645080566406	-862.3915405273438	1021.75048828125	-66.75093841552734	-776.0087280273438	675.951416015625	-115.4465484619141	-739.2406005859375	748.3417358398438	-89.44377899169922	-800.0061645507812	751.7450561523438	-45.52521514892578	-736.283935546875	1643.293090820312	-266.5783996582031	-559.0291748046875	1636.68505859375	-374.4608154296875	-599.6537475585938	1634.967529296875	-236.2342376708984	-683.4847412109375	1641.695678710938	-423.5106201171875	-801.4100341796875	897.3253173828125	-544.8323364257812	-820.763671875	910.4324340820312	-159.4839630126953	-734.5814208984375	938.1719970703125	-216.9770812988281	-722.37158203125	916.1180419921875	-491.8357238769531	-881.5568237304688	464.4558410644531	-470.0067443847656	-836.9057006835938	622.3524169921875	-508.7158813476562	-1086.980346679688	38.90835571289062	-453.4073486328125	-1011.7294921875	243.2332763671875	-468.4426574707031	-882.992919921875	35.36438369750977	-375.7554626464844	-959.8522338867188	37.11010360717773	-348.2392578125	-964.0330810546875	34.53603363037109	-454.5162658691406	-1162.269775390625	44.33142852783203	-406.1273193359375	-616.48291015625	512.6911010742188	-195.8445587158203	-738.0411987304688	776.0484619140625	-151.8096771240234	-539.1171875	34.83800506591797	-241.3281555175781	-567.3671264648438	376.9202575683594	-209.6517486572266	-336.699462890625	123.3365020751953	-226.2389831542969	-381.8866271972656	103.9266586303711	-282.2662353515625	-425.14453125	77.51789093017578	-191.3375854492188	-572.8825073242188	19.48175621032715	-309.2423095703125	-733.646728515625	680.1317138671875	-555.6201782226562	
128	1.27	-934.794921875	976.3680419921875	-286.4259643554688	-919.70947265625	982.7835693359375	-419.3811645507812	-915.4497680664062	1081.37255859375	-359.1875915527344	-660.53173828125	1238.392822265625	-340.5724182128906	-908.8653564453125	1207.084350585938	-362.3224792480469	-824.7434692382812	1472.859985351562	-340.0400085449219	-664.0460205078125	1350.449951171875	-338.1558227539062	-919.4910278320312	1357.6171875	-262.8265991210938	-857.7380981445312	1427.379516601562	-436.4395751953125	-750.0328369140625	1438.720458984375	-510.2622680664062	-768.0455932617188	1314.925170898438	-592.7127075195312	-770.2880859375	1092.740478515625	-616.5233154296875	-865.2442626953125	1094.98046875	-582.2013549804688	-711.8763427734375	846.09326171875	-550.1201171875	-745.9378662109375	824.1837158203125	-627.6626586914062	-755.2677612304688	1004.822570800781	-618.66064453125	-744.2423095703125	764.3232421875	-618.0484008789062	-700.2827758789062	766.4222412109375	-566.1168823242188	-784.9129638671875	1425.932861328125	-180.7473602294922	-816.102783203125	1363.009643554688	-115.9723892211914	-859.7837524414062	1076.713012695312	-72.97200012207031	-913.5796508789062	1066.454345703125	-105.1973114013672	-750.884521484375	842.41796875	-105.7328872680664	-802.9238891601562	826.1405029296875	-42.53665542602539	-856.8525390625	1020.442749023438	-65.41104125976562	-772.0120849609375	675.4666137695312	-115.703254699707	-734.2943725585938	746.755126953125	-88.48334503173828	-795.0286865234375	750.2244873046875	-44.65311431884766	-729.7444458007812	1641.96435546875	-264.4712829589844	-552.3681640625	1635.775634765625	-372.214599609375	-593.1366577148438	1633.811645507812	-234.01220703125	-676.77099609375	1640.644409179688	-421.3390197753906	-794.6271362304688	896.2528686523438	-543.6661987304688	-812.8050537109375	908.9984130859375	-158.3334197998047	-727.3599853515625	936.4409790039062	-216.0121154785156	-715.4406127929688	914.8502197265625	-490.9309997558594	-877.1094360351562	463.8682861328125	-469.5054321289062	-831.3438110351562	621.4599609375	-507.712158203125	-1086.723999023438	39.94624710083008	-453.2863464355469	-1009.524780273438	243.8400115966797	-468.031494140625	-882.8997802734375	35.20829010009766	-375.760986328125	-959.6547241210938	37.21193313598633	-348.3069152832031	-963.9890747070312	34.56065368652344	-454.4495849609375	-1161.998413085938	46.35416793823242	-406.0529479980469	-609.5800170898438	510.9984741210938	-195.3135070800781	-730.2296142578125	774.7662353515625	-150.4710693359375	-532.1640014648438	33.68410873413086	-240.8507385253906	-560.4401245117188	375.3590393066406	-209.2382507324219	-329.4365234375	121.4994583129883	-225.6091613769531	-374.5159912109375	102.0023574829102	-281.6664123535156	-418.1773986816406	76.14907836914062	-190.7835998535156	-565.8319702148438	18.55657386779785	-308.9989013671875	-726.775390625	679.2267456054688	-554.5228881835938	
129	1.28	-927.1275634765625	975.1502075195312	-284.9319763183594	-912.2647705078125	981.7171630859375	-417.9054565429688	-908.1376953125	1080.018798828125	-357.6852111816406	-653.2196044921875	1237.258911132812	-338.9930725097656	-901.5238647460938	1205.711669921875	-360.7838439941406	-817.7576904296875	1471.5927734375	-338.1838073730469	-656.940185546875	1349.306762695312	-336.3352355957031	-912.3443603515625	1356.026489257812	-261.2283325195312	-850.6585083007812	1426.207153320312	-434.6498413085938	-742.893798828125	1437.765502929688	-508.3938903808594	-760.783447265625	1314.02294921875	-591.0485229492188	-763.06103515625	1091.881958007812	-615.0337524414062	-858.0579223632812	1094.131591796875	-580.76611328125	-704.6388549804688	845.3316040039062	-548.9791259765625	-738.8911743164062	823.2965087890625	-626.4592895507812	-748.0852661132812	1003.946228027344	-617.2490234375	-737.27392578125	763.4493408203125	-616.9371948242188	-693.2361450195312	765.5286254882812	-565.01953125	-778.0236206054688	1424.51806640625	-178.9441223144531	-809.3700561523438	1361.581420898438	-114.2789611816406	-853.9069213867188	1075.422607421875	-71.48335266113281	-907.8457641601562	1065.407836914062	-103.6688003540039	-745.5445556640625	840.947021484375	-104.643180847168	-797.6826171875	824.6646118164062	-41.45861434936523	-851.1658325195312	1019.161376953125	-63.98686218261719	-767.8453979492188	674.8622436523438	-115.8385314941406	-729.2940063476562	745.1618041992188	-87.54882049560547	-789.9783935546875	748.7123413085938	-43.77340316772461	-723.108154296875	1640.688720703125	-262.2766723632812	-545.6115112304688	1634.998413085938	-369.8779602050781	-586.5078125	1632.776245117188	-231.7142639160156	-669.9771118164062	1639.689208984375	-419.0818176269531	-787.650634765625	895.2526245117188	-542.4489135742188	-804.66748046875	907.605224609375	-157.1534576416016	-719.8778076171875	934.7896728515625	-214.9979400634766	-708.2515258789062	913.6519775390625	-489.9767761230469	-872.47265625	463.3486328125	-469.0025634765625	-825.6105346679688	620.6567993164062	-506.728759765625	-1086.425659179688	41.14089202880859	-453.2203369140625	-1007.186950683594	244.5906677246094	-467.6434936523438	-882.7968139648438	35.04282379150391	-375.7628479003906	-959.4359741210938	37.34665298461914	-348.3963928222656	-963.9059448242188	34.61857604980469	-454.4093017578125	-1161.65966796875	48.57764053344727	-406.038330078125	-602.6124267578125	509.2918090820312	-194.828125	-722.2250366210938	773.4602661132812	-149.1657867431641	-526.289794921875	32.47316741943359	-240.3911743164062	-553.6776733398438	373.6560668945312	-208.8885192871094	-322.9514770507812	118.8276062011719	-225.25341796875	-368.0297546386719	99.35945129394531	-281.321533203125	-412.0705871582031	74.2642822265625	-190.4173126220703	-560.0496826171875	17.81223297119141	-308.70068359375	-719.9044799804688	678.291259765625	-553.39453125	
